HIERARCHY
ROOT Hips
{
	OFFSET 0.00000 0.00000 0.00000
	CHANNELS 6 Xposition Yposition Zposition Zrotation Yrotation Xrotation 
	JOINT LHipJoint
	{
		OFFSET 0 0 0
		CHANNELS 3 Zrotation Yrotation Xrotation
		JOINT LeftHip
		{
			OFFSET 1.75344 -1.53157 0.77399
			CHANNELS 3 Zrotation Yrotation Xrotation
			JOINT LeftKnee
			{
				OFFSET 2.25415 -6.19323 0.00000
				CHANNELS 3 Zrotation Yrotation Xrotation
				JOINT LeftAnkle
				{
					OFFSET 2.30342 -6.32861 0.00000
					CHANNELS 3 Zrotation Yrotation Xrotation
					JOINT LeftToe
					{
						OFFSET 0.10958 -0.30108 1.49206
						CHANNELS 3 Zrotation Yrotation Xrotation
						End Site
						{
							OFFSET 0.00000 -0.00000 0.77783
						}
					}
				}
			}
		}
	}
	JOINT RHipJoint
	{
		OFFSET 0 0 0
		CHANNELS 3 Zrotation Yrotation Xrotation
		JOINT RightHip
		{
			OFFSET -1.81912 -1.53156 0.77399
			CHANNELS 3 Zrotation Yrotation Xrotation
			JOINT RightKnee
			{
				OFFSET -2.22882 -6.12365 0.00000
				CHANNELS 3 Zrotation Yrotation Xrotation
				JOINT RightAnkle
				{
					OFFSET -2.21943 -6.09785 0.00000
					CHANNELS 3 Zrotation Yrotation Xrotation
					JOINT RightToe
					{
						OFFSET -0.18931 -0.52012 1.59379
						CHANNELS 3 Zrotation Yrotation Xrotation
						End Site
						{
							OFFSET -0.00000 -0.00000 0.84686
						}
					}
				}
			}
		}
	}
	JOINT lowerback
	{
		OFFSET 0 0 0
		CHANNELS 3 Zrotation Yrotation Xrotation
		JOINT Chest
		{
			OFFSET -0.00200 1.66634 -0.14248
			CHANNELS 3 Zrotation Yrotation Xrotation
			JOINT Chest2
			{
				OFFSET -0.00875 1.64542 0.09514
				CHANNELS 3 Zrotation Yrotation Xrotation
				JOINT lowerneck
				{
					OFFSET 0 0 0
					CHANNELS 3 Zrotation Yrotation Xrotation
					JOINT Neck
					{
						OFFSET 0.02257 1.59605 0.00839
						CHANNELS 3 Zrotation Yrotation Xrotation
						JOINT Head
						{
							OFFSET -0.10214 1.57530 -0.23335
							CHANNELS 3 Zrotation Yrotation Xrotation
							End Site
							{
								OFFSET -0.03588 1.60717 -0.08062
							}
						}
					}
				}
				JOINT LeftCollar
				{
					OFFSET 0 0 0
					CHANNELS 3 Zrotation Yrotation Xrotation
					JOINT LeftShoulder
					{
						OFFSET 2.54983 1.10186 0.40078
CHANNELS 3 Zrotation Xrotation Yrotation
						JOINT LeftElbow
						{
OFFSET 0 -4.288400 0.000000
CHANNELS 3 Zrotation Xrotation Yrotation
							JOINT LeftWrist
							{
OFFSET 0 -3.065520 -0.000000
CHANNELS 3 Zrotation Xrotation Yrotation
								JOINT lhand
								{
									OFFSET 0 0 0
CHANNELS 3 Zrotation Xrotation Yrotation
									JOINT LFingers
									{
OFFSET 0 -0.753040 0.000000
CHANNELS 3 Zrotation Xrotation Yrotation
										End Site
										{
OFFSET 0 -0.607120 0.000000
										}
									}
								}
								JOINT LThumb
								{
OFFSET 0 0.000000 0.000000
CHANNELS 3 Zrotation Xrotation Yrotation
									End Site
									{
OFFSET 0 -0.616390 0.616390
									}
								}
							}
						}
					}
				}
				JOINT RightCollar
				{
					OFFSET 0 0 0
					CHANNELS 3 Zrotation Yrotation Xrotation
					JOINT RightShoulder
					{
						OFFSET -2.60909 1.35448 0.21802
CHANNELS 3 Zrotation Xrotation Yrotation
						JOINT RightElbow
						{
OFFSET 0 -4.521720 -0.000000
CHANNELS 3 Zrotation Xrotation Yrotation
							JOINT RightWrist
							{
OFFSET 0 -2.891400 0.000000
CHANNELS 3 Zrotation Xrotation Yrotation
								JOINT rhand
								{
									OFFSET 0 0 0
CHANNELS 3 Zrotation Xrotation Yrotation
									JOINT RFingers
									{
OFFSET 0 -0.680540 0.000000
CHANNELS 3 Zrotation Xrotation Yrotation
										End Site
										{
OFFSET 0 -0.548670 0.000000
										}
									}
								}
								JOINT RThumb
								{
OFFSET 0 0.000000 0.000000
CHANNELS 3 Zrotation Xrotation Yrotation
									End Site
									{
OFFSET 0 -0.557050 0.557050
									}
								}
							}
						}
					}
				}
			}
		}
	}
}
MOTION
Frames: 9
Frame Time: 0.008333333333333333
9.195831 13.469239 19.065926 -179.446356 -5.893434 -144.822344 0.000000 0.000000 0.000000 -13.287717 -15.129631 -59.142116 16.143589 19.638781 78.658696 3.222633 -3.128071 -33.266945 2.604556 -10.023990 -29.055934 0.000000 0.000000 0.000000 22.394844 15.637687 -52.363078 -14.833434 -19.346397 74.733599 -2.370143 -11.025066 -34.668605 -0.052307 1.476052 -4.059819 0.632371 2.188933 31.441700 0.842699 2.419708 2.412851 -0.321339 0.752678 -13.718212 -9.902211 -4.481677 -11.889654 8.796938 -6.960892 -21.198161 4.466136 -4.475544 -3.856486 0.000000 0.000000 0.000000 68.921999 -76.175030 18.648582 24.801619 -35.998496 8.173846 40.956755 -53.536152 54.306058 0.000000 0.000000 0.000000 -7.125000 0.000000 0.000000 -3.265565 -31.465369 -4.494202 0.000000 0.000000 0.000000 -65.081756 -56.720206 -0.291898 -35.097964 -44.875296 -14.884665 -26.884327 16.325685 54.886347 0.000000 0.000000 0.000000 7.125000 0.000000 0.000000 76.549147 81.955238 -68.533448
9.192226 13.526700 18.927777 -179.736132 -5.928791 -145.233038 0.000000 0.000000 0.000000 -13.861918 -15.031960 -57.477312 15.822651 19.575575 77.702312 3.154318 -3.219969 -32.878177 2.803376 -10.364562 -30.170610 0.000000 0.000000 0.000000 22.410961 15.185528 -50.769643 -14.469896 -19.249318 73.633591 -2.261888 -11.051407 -34.085586 -0.064498 1.618978 -4.454275 0.494656 2.139676 30.777186 0.777080 2.326792 2.381737 -0.270848 0.734489 -13.467828 -9.823221 -4.599474 -12.456547 8.498379 -7.108836 -20.639832 4.311758 -4.521442 -3.607090 0.000000 0.000000 0.000000 85.963684 -77.194274 34.809037 25.388074 -36.596337 8.520902 40.351744 -53.919733 54.108275 0.000000 0.000000 0.000000 -7.125000 0.000000 0.000000 -3.401113 -31.065534 -4.671940 0.000000 0.000000 0.000000 -70.881427 -58.096577 -6.072049 -36.354234 -45.748902 -15.777810 -27.979471 15.469957 54.026667 0.000000 0.000000 0.000000 7.125000 0.000000 0.000000 71.105136 82.385116 -63.698606
9.189196 13.584108 18.781706 -179.919846 -5.885488 -145.560684 0.000000 0.000000 0.000000 -14.382876 -14.774073 -55.916123 15.479299 19.502304 76.675832 3.082714 -3.092404 -32.514179 3.104973 -10.862310 -31.817611 0.000000 0.000000 0.000000 22.508923 14.837961 -49.203943 -14.087677 -19.139836 72.471472 -2.118854 -11.220692 -33.391118 -0.100177 2.041073 -5.619298 0.315213 2.111766 29.968199 0.733254 2.259501 2.362318 -0.181747 0.734014 -13.212882 -9.777042 -4.663131 -12.975583 8.175069 -7.183793 -20.092570 4.160342 -4.529033 -3.376519 0.000000 0.000000 0.000000 103.888361 -76.957654 51.862511 26.024476 -37.231183 8.903105 38.776099 -52.939123 53.352206 0.000000 0.000000 0.000000 -7.125000 0.000000 0.000000 -3.634890 -29.816372 -4.966733 0.000000 0.000000 0.000000 -76.851528 -59.158260 -11.875766 -37.672174 -46.627411 -16.727245 -28.665449 14.578064 53.300677 0.000000 0.000000 0.000000 7.125000 0.000000 0.000000 65.993432 82.610068 -59.020584
9.184754 13.651991 18.623228 -180.032985 -5.858084 -145.874958 0.000000 0.000000 0.000000 -14.781627 -14.453263 -54.420012 15.082979 19.409866 75.486285 2.988599 -3.150566 -31.981171 3.293202 -11.154794 -32.804096 0.000000 0.000000 0.000000 22.716092 14.448345 -47.593521 -13.676188 -19.012450 71.212701 -1.953755 -11.253209 -32.451565 -0.093808 1.974782 -5.436098 0.181458 2.072712 29.127118 0.711716 2.204021 2.572085 -0.090565 0.740299 -13.247075 -9.835539 -4.740903 -13.354136 7.951976 -7.257710 -19.600879 4.064719 -4.533726 -3.175887 0.000000 0.000000 0.000000 117.703585 -75.589515 64.803635 26.926987 -38.108217 9.454467 40.742699 -55.914332 54.692689 0.000000 0.000000 0.000000 -7.125000 0.000000 0.000000 -3.537926 -31.716681 -4.874546 0.000000 0.000000 0.000000 -84.082340 -59.930284 -18.404113 -38.597564 -47.215815 -17.403144 -29.200469 13.402010 53.346267 0.000000 0.000000 0.000000 7.125000 0.000000 0.000000 66.611085 82.847575 -59.842138
9.175993 13.727510 18.452024 -180.212454 -5.941281 -146.182290 0.000000 0.000000 0.000000 -15.254652 -14.189373 -52.758615 14.642002 19.295985 74.155052 2.791672 -2.630109 -30.976444 3.468396 -11.416119 -33.697794 0.000000 0.000000 0.000000 22.909687 13.846317 -46.030763 -13.232922 -18.863160 69.846104 -1.820279 -11.248241 -31.642899 -0.086127 1.892449 -5.208625 0.217309 1.988152 28.427183 0.656164 2.145070 2.425056 -0.142920 0.731699 -13.104181 -9.980497 -4.880301 -13.699756 7.863782 -7.389705 -19.157701 4.026017 -4.568345 -2.980962 0.000000 0.000000 0.000000 126.100915 -73.886870 72.374838 28.552038 -39.607909 10.478241 40.389426 -56.180015 54.227360 0.000000 0.000000 0.000000 -7.125000 0.000000 0.000000 -3.438031 -31.182196 -4.726363 0.000000 0.000000 0.000000 -89.911880 -59.955627 -23.827439 -40.204538 -48.182766 -18.593952 -29.469318 12.449628 53.139802 0.000000 0.000000 0.000000 7.125000 0.000000 0.000000 65.086646 82.934296 -58.474243
9.165335 13.808686 18.268140 -180.389745 -6.033202 -146.545082 0.000000 0.000000 0.000000 -15.778043 -13.838217 -50.877678 14.153406 19.157520 72.670549 2.443317 -1.569943 -29.148777 3.216466 -11.028409 -32.385904 0.000000 0.000000 0.000000 23.119046 13.149730 -44.391943 -12.740472 -18.683761 68.314848 -1.657002 -11.442759 -30.771651 -0.100513 2.039669 -5.615552 0.254133 1.891427 27.869260 0.594560 2.073449 2.191684 -0.202462 0.716447 -13.078184 -9.969635 -4.958616 -13.939300 7.654550 -7.479626 -18.787701 3.933075 -4.590260 -2.838630 0.000000 0.000000 0.000000 132.605419 -72.160930 78.338523 30.238793 -41.082357 11.571678 39.774607 -55.945126 54.940525 0.000000 0.000000 0.000000 -7.125000 0.000000 0.000000 -4.009751 -31.569625 -5.524770 0.000000 0.000000 0.000000 -95.485736 -59.716211 -28.951326 -41.765656 -49.073602 -19.765786 -29.361822 11.174706 52.572289 0.000000 0.000000 0.000000 7.125000 0.000000 0.000000 60.635407 82.764222 -54.113415
9.153657 13.892947 18.070873 -180.547508 -6.079792 -147.032267 0.000000 0.000000 0.000000 -16.322755 -13.347314 -48.743788 13.623155 18.992672 71.047487 2.165846 -1.264453 -27.497159 2.824328 -10.395551 -30.276559 0.000000 0.000000 0.000000 23.396507 12.320083 -42.483076 -12.192296 -18.467016 66.592993 -1.454399 -11.715114 -29.669088 -0.109758 2.135770 -5.881062 0.222101 1.841052 27.273702 0.575501 2.023941 2.102371 -0.178027 0.709653 -12.865494 -9.993671 -4.961890 -14.033213 7.472728 -7.515492 -18.766043 3.876268 -4.604690 -2.826812 0.000000 0.000000 0.000000 135.142850 -70.856432 80.909462 33.041119 -43.291319 13.474542 38.067962 -53.824289 55.492451 0.000000 0.000000 0.000000 -7.125000 0.000000 0.000000 -4.897407 -31.441706 -6.745704 0.000000 0.000000 0.000000 -101.299129 -59.206122 -34.314469 -43.345083 -49.922223 -20.967231 -28.291632 9.191025 51.750162 0.000000 0.000000 0.000000 7.125000 0.000000 0.000000 54.989415 82.035833 -48.203467
9.141532 13.979118 17.861234 -180.669120 -6.080089 -147.621683 0.000000 0.000000 0.000000 -16.849420 -12.722901 -46.443847 13.056312 18.799334 69.297327 1.987613 -1.646807 -26.207950 2.607732 -10.030726 -29.076639 0.000000 0.000000 0.000000 23.767216 11.338556 -40.283342 -11.584702 -18.205358 64.661330 -1.214162 -12.006465 -28.270163 -0.111954 2.156398 -5.938087 0.158276 1.814204 26.721363 0.566689 1.992455 2.021954 -0.130944 0.711314 -12.665222 -10.122937 -4.904911 -13.800366 7.442120 -7.471411 -18.989185 3.906486 -4.580542 -2.931174 0.000000 0.000000 0.000000 136.108840 -69.542766 81.836202 36.083610 -45.560917 15.585297 37.421029 -52.507045 55.759034 0.000000 0.000000 0.000000 -7.125000 0.000000 0.000000 -5.267382 -31.443433 -7.256477 0.000000 0.000000 0.000000 -106.692236 -58.506095 -39.306436 -44.992250 -50.757027 -22.234971 -26.820769 7.053971 50.909246 0.000000 0.000000 0.000000 7.125000 0.000000 0.000000 50.075087 81.056021 -42.843298
9.129062 14.067775 17.641571 -180.739594 -6.053222 -148.218865 0.000000 0.000000 0.000000 -17.334983 -11.987425 -44.140654 12.454369 18.574186 67.419897 1.789673 -1.695265 -24.822802 2.760500 -10.289289 -29.926027 0.000000 0.000000 0.000000 24.203830 10.243976 -37.942268 -10.920818 -17.893418 62.520723 -0.953500 -12.300958 -26.640823 -0.125566 2.282356 -6.286799 0.128388 1.763187 26.437911 0.505268 1.970130 1.632447 -0.179086 0.722397 -12.966426 -10.252128 -4.822849 -13.128405 7.523724 -7.340637 -19.061750 3.980274 -4.483728 -3.049999 0.000000 0.000000 0.000000 139.578274 -67.572579 84.365933 37.615025 -46.589740 16.685976 40.347976 -55.376357 56.495730 0.000000 0.000000 0.000000 -7.125000 0.000000 0.000000 -4.584763 -33.105346 -6.355530 0.000000 0.000000 0.000000 -110.616488 -57.750478 -42.879293 -46.651537 -51.549177 -23.526134 -25.936910 5.607209 50.228375 0.000000 0.000000 0.000000 7.125000 0.000000 0.000000 46.895259 80.345163 -39.406816
